<svg width="61" height="61" viewBox="0 0 61 61" fill="none" xmlns="http://www.w3.org/2000/svg">
<path d="M8.55694 11.1664L7.89611 10.5056C7.23528 9.84472 6.16778 9.86167 5.52389 10.5056L5.50694 10.5225C4.84611 11.1833 4.84611 12.2508 5.50694 12.8947L6.16778 13.5556C6.82861 14.2164 7.87917 14.2164 8.54 13.5556L8.55694 13.5386C9.21778 12.8947 9.21778 11.8103 8.55694 11.1664Z" fill="#E7F1FB"/>
<path d="M3.40583 21.9431H1.6775C0.745556 21.9431 0 22.6886 0 23.6206V23.6375C0 24.5694 0.745556 25.315 1.6775 25.315H3.38889C4.33778 25.3319 5.08333 24.5864 5.08333 23.6544V23.6375C5.08333 22.6886 4.33778 21.9431 3.40583 21.9431Z" fill="#E7F1FB"/>
<path d="M18.6558 5.08333H18.6389C17.69 5.08333 16.9444 5.82889 16.9444 6.76083V8.3875C16.9444 9.31944 17.69 10.065 18.6219 10.065H18.6389C19.5878 10.0819 20.3333 9.33639 20.3333 8.40444V6.76083C20.3333 5.82889 19.5878 5.08333 18.6558 5.08333Z" fill="#E7F1FB"/>
<path d="M31.7708 10.5225C31.11 9.86167 30.0425 9.86167 29.3817 10.5056L28.7208 11.1664C28.06 11.8272 28.06 12.8947 28.7208 13.5386L28.7378 13.5556C29.3986 14.2164 30.4661 14.2164 31.11 13.5556L31.7708 12.8947C32.4317 12.2339 32.4317 11.1833 31.7708 10.5225Z" fill="#E7F1FB"/>
<path d="M18.6389 13.4708C13.0303 13.4708 8.47222 18.0289 8.47222 23.6375C8.47222 27.273 10.3874 30.4671 13.2624 32.2645C14.638 28.2793 18.4222 25.4167 22.875 25.4167C23.0502 25.4167 23.2244 25.4211 23.3975 25.4299C24.1315 22.8249 25.6015 20.5284 27.5689 18.779C25.8434 15.6183 22.4886 13.4708 18.6389 13.4708Z" fill="#E7F1FB"/>
<path d="M5.50694 36.7525C6.16778 37.4133 7.23528 37.4133 7.89611 36.7525L8.55694 36.0917C9.21778 35.4308 9.20083 34.3633 8.55694 33.7194L8.54 33.7025C7.87917 33.0417 6.81167 33.0417 6.15083 33.7025L5.49 34.3633C4.84611 35.0411 4.84611 36.0917 5.50694 36.7525Z" fill="#E7F1FB"/>
<path d="M17.7917 53.375H50.8333C56.4482 53.375 61 48.8232 61 43.2083C61 38.4398 57.717 34.438 53.2879 33.34C53.3455 32.8249 53.375 32.3013 53.375 31.7708C53.375 24.0504 47.1163 17.7917 39.3958 17.7917C32.9923 17.7917 27.5943 22.0973 25.9391 27.9715C25.7661 27.9628 25.5919 27.9583 25.4167 27.9583C19.8018 27.9583 15.25 32.5101 15.25 38.125C15.25 38.2693 15.253 38.4129 15.259 38.5557C12.2927 39.5999 10.1667 42.4267 10.1667 45.75C10.1667 49.9612 13.5805 53.375 17.7917 53.375Z" fill="#E7F1FB"/>
</svg>
