<svg width="50" height="45" viewBox="0 0 50 45" fill="none" xmlns="http://www.w3.org/2000/svg">
<path d="M7.5 35H40C45.5228 35 50 30.5228 50 25C50 20.3096 46.7708 16.3734 42.4143 15.2934C42.4709 14.7867 42.5 14.2718 42.5 13.75C42.5 6.15608 36.3439 0 28.75 0C22.4514 0 17.142 4.23508 15.5139 10.013C15.3437 10.0044 15.1724 10 15 10C9.47715 10 5 14.4772 5 20C5 20.1419 5.00296 20.2832 5.00881 20.4237C2.09123 21.4508 0 24.2312 0 27.5C0 31.6421 3.35786 35 7.5 35Z" fill="#E7F1FB"/>
<path d="M18.3547 37.5C19.1641 37.5 19.7357 38.293 19.4797 39.0609L17.7703 44.1891C17.6089 44.6734 17.1557 45 16.6453 45C15.8359 45 15.2643 44.207 15.5203 43.4391L17.2297 38.3109C17.3911 37.8266 17.8443 37.5 18.3547 37.5Z" fill="#E7F1FB"/>
<path d="M23.3547 37.5C22.8443 37.5 22.3911 37.8266 22.2297 38.3109L20.5203 43.4391C20.2643 44.207 20.8359 45 21.6453 45C22.1557 45 22.6089 44.6734 22.7703 44.1891L24.4797 39.0609C24.7357 38.293 24.1641 37.5 23.3547 37.5Z" fill="#E7F1FB"/>
<path d="M28.3547 37.5C29.1641 37.5 29.7357 38.293 29.4797 39.0609L27.7703 44.1891C27.6089 44.6734 27.1557 45 26.6453 45C25.8359 45 25.2643 44.207 25.5203 43.4391L27.2297 38.3109C27.3911 37.8266 27.8443 37.5 28.3547 37.5Z" fill="#E7F1FB"/>
<path d="M33.3547 37.5C34.1641 37.5 34.7357 38.293 34.4797 39.0609L32.7703 44.1891C32.6089 44.6734 32.1557 45 31.6453 45C30.8359 45 30.2643 44.207 30.5203 43.4391L32.2297 38.3109C32.3911 37.8266 32.8443 37.5 33.3547 37.5Z" fill="#E7F1FB"/>
</svg>
