<svg width="50" height="40" viewBox="0 0 50 40" fill="none" xmlns="http://www.w3.org/2000/svg">
<path d="M7.01389 5.0386L6.47222 4.49123C5.93055 3.94386 5.05556 3.9579 4.52778 4.49123L4.51389 4.50526C3.97222 5.05263 3.97222 5.93684 4.51389 6.47018L5.05556 7.01754C5.59722 7.56491 6.45833 7.56491 7 7.01754L7.01389 7.00351C7.55556 6.47018 7.55556 5.57193 7.01389 5.0386Z" fill="#E7F1FB"/>
<path d="M2.79167 13.9649H1.375C0.611111 13.9649 0 14.5825 0 15.3544V15.3684C0 16.1404 0.611111 16.7579 1.375 16.7579H2.77778C3.55556 16.7719 4.16667 16.1544 4.16667 15.3825V15.3684C4.16667 14.5825 3.55556 13.9649 2.79167 13.9649Z" fill="#E7F1FB"/>
<path d="M15.2917 0H15.2778C14.5 0 13.8889 0.617544 13.8889 1.38947V2.73684C13.8889 3.50877 14.5 4.12632 15.2639 4.12632H15.2778C16.0556 4.14035 16.6667 3.52281 16.6667 2.75088V1.38947C16.6667 0.617544 16.0556 0 15.2917 0Z" fill="#E7F1FB"/>
<path d="M26.0417 4.50526C25.5 3.9579 24.625 3.9579 24.0833 4.49123L23.5417 5.0386C23 5.58597 23 6.47018 23.5417 7.00351L23.5556 7.01754C24.0972 7.56491 24.9722 7.56491 25.5 7.01754L26.0417 6.47018C26.5833 5.92281 26.5833 5.05263 26.0417 4.50526Z" fill="#E7F1FB"/>
<path d="M15.2778 6.94737C10.6806 6.94737 6.94444 10.7228 6.94444 15.3684C6.94444 18.3797 8.51423 21.0254 10.8708 22.5142C11.9984 19.2132 15.1002 16.8421 18.75 16.8421C18.8936 16.8421 19.0364 16.8458 19.1783 16.853C19.7799 14.6953 20.9849 12.7931 22.5975 11.3441C21.1831 8.72614 18.4333 6.94737 15.2778 6.94737Z" fill="#E7F1FB"/>
<path d="M4.51389 26.2316C5.05556 26.779 5.93055 26.779 6.47222 26.2316L7.01389 25.6842C7.55556 25.1368 7.54167 24.2526 7.01389 23.7193L7 23.7053C6.45833 23.1579 5.58333 23.1579 5.04167 23.7053L4.5 24.2526C3.97222 24.814 3.97222 25.6842 4.51389 26.2316Z" fill="#E7F1FB"/>
<path d="M14.5833 40H41.6667C46.269 40 50 36.2298 50 31.5789C50 27.6291 47.309 24.3145 43.6786 23.405C43.7258 22.9783 43.75 22.5446 43.75 22.1053C43.75 15.7104 38.6199 10.5263 32.2917 10.5263C27.0428 10.5263 22.6183 14.0927 21.2616 18.9583C21.1197 18.951 20.977 18.9474 20.8333 18.9474C16.231 18.9474 12.5 22.7176 12.5 27.3684C12.5 27.4879 12.5025 27.6069 12.5073 27.7252C10.076 28.5901 8.33333 30.9315 8.33333 33.6842C8.33333 37.1723 11.1316 40 14.5833 40Z" fill="#E7F1FB"/>
</svg>
